<?xml version="1.0" encoding="UTF-8"?>
<svg width="54px" height="54px" viewBox="0 0 54 54" version="1.1" xmlns="http://www.w3.org/2000/svg" xmlns:xlink="http://www.w3.org/1999/xlink">
    <!-- Generator: Sketch 56.3 (81716) - https://sketch.com -->
    <title>icon_approval_1</title>
    <desc>Created with Sketch.</desc>
    <g id="页面-1" stroke="none" stroke-width="1" fill="none" fill-rule="evenodd">
        <g id="首页" transform="translate(-341.000000, -115.000000)">
            <g id="&lt;h24&gt;" transform="translate(116.000000, 88.000000)">
                <g id="编组-14">
                    <g id="编组-20" transform="translate(225.000000, 27.000000)">
                        <g id="icon_approval_1">
                            <circle id="椭圆形" fill="#A6D8F2" cx="27" cy="27" r="27"></circle>
                            <g id="icon_approval" transform="translate(7.000000, 7.000000)">
                                <rect id="矩形" x="3.55271368e-15" y="3.55271368e-15" width="40" height="40"></rect>
                                <path d="M26.127974,27.3429394 L28.557758,29.5563729 L33.872026,24.7152931 C34.2803038,24.3433688 34.9127826,24.3728391 35.2847069,24.7811169 C35.6566312,25.1893947 35.6271609,25.8218735 35.2188831,26.1937978 L29.2311865,31.6483433 C28.8495409,31.9960068 28.2659752,31.9960068 27.8843295,31.6483433 L24.7811169,28.8214441 C24.3728391,28.4495198 24.3433688,27.8170411 24.7152931,27.4087633 C25.0872174,27.0004855 25.7196962,26.9710151 26.127974,27.3429394 Z M23.6363636,31.7272727 C24.1886484,31.7272727 24.6363636,32.174988 24.6363636,32.7272727 C24.6363636,33.2795575 24.1886484,33.7272727 23.6363636,33.7272727 L10.9090909,33.7272727 C9.35265207,33.7272727 8.09090909,32.4655297 8.09090909,30.9090909 L8.09090909,9.09090909 C8.09090909,7.53447025 9.35265207,6.27272727 10.9090909,6.27272727 L29.0909091,6.27272727 C30.6473479,6.27272727 31.9090909,7.53447025 31.9090909,9.09090909 L31.9090909,21.8181818 C31.9090909,22.3704666 31.4613757,22.8181818 30.9090909,22.8181818 C30.3568062,22.8181818 29.9090909,22.3704666 29.9090909,21.8181818 L29.9090909,9.09090909 C29.9090909,8.63903975 29.5427784,8.27272727 29.0909091,8.27272727 L10.9090909,8.27272727 C10.4572216,8.27272727 10.0909091,8.63903975 10.0909091,9.09090909 L10.0909091,30.9090909 C10.0909091,31.3609602 10.4572216,31.7272727 10.9090909,31.7272727 L23.6363636,31.7272727 Z M14.5454545,20.8181818 L20,20.8181818 C20.5522847,20.8181818 21,21.2658971 21,21.8181818 C21,22.3704666 20.5522847,22.8181818 20,22.8181818 L14.5454545,22.8181818 C13.9931698,22.8181818 13.5454545,22.3704666 13.5454545,21.8181818 C13.5454545,21.2658971 13.9931698,20.8181818 14.5454545,20.8181818 Z M14.5454545,15.3636364 L25.4545455,15.3636364 C26.0068302,15.3636364 26.4545455,15.8113516 26.4545455,16.3636364 C26.4545455,16.9159211 26.0068302,17.3636364 25.4545455,17.3636364 L14.5454545,17.3636364 C13.9931698,17.3636364 13.5454545,16.9159211 13.5454545,16.3636364 C13.5454545,15.8113516 13.9931698,15.3636364 14.5454545,15.3636364 Z" id="形状结合" fill="#FFFFFF" fill-rule="nonzero"></path>
                            </g>
                        </g>
                    </g>
                </g>
            </g>
        </g>
    </g>
</svg>