<?xml version="1.0" encoding="UTF-8"?>
<svg width="202px" height="297px" viewBox="0 0 202 297" version="1.1" xmlns="http://www.w3.org/2000/svg" xmlns:xlink="http://www.w3.org/1999/xlink">
    <!-- Generator: Sketch 56.3 (81716) - https://sketch.com -->
    <title>artpic_page2</title>
    <desc>Created with Sketch.</desc>
    <defs>
        <linearGradient x1="81.6012415%" y1="-72.1160891%" x2="27.9006889%" y2="129.623863%" id="linearGradient-1">
            <stop stop-color="#B3DFFF" offset="0.0105574324%"></stop>
            <stop stop-color="#E3FEFF" offset="100%"></stop>
        </linearGradient>
        <linearGradient x1="-49.1393604%" y1="397.491035%" x2="79.8771188%" y2="-90.6156431%" id="linearGradient-2">
            <stop stop-color="#75E2FF" offset="0%"></stop>
            <stop stop-color="#9BC0FB" offset="100%"></stop>
        </linearGradient>
        <linearGradient x1="31.1282499%" y1="397.491035%" x2="55.6872822%" y2="-90.6156431%" id="linearGradient-3">
            <stop stop-color="#75E2FF" offset="0%"></stop>
            <stop stop-color="#9BC0FB" offset="100%"></stop>
        </linearGradient>
        <linearGradient x1="31.6897659%" y1="397.491035%" x2="55.518061%" y2="-90.6156431%" id="linearGradient-4">
            <stop stop-color="#75E2FF" offset="0%"></stop>
            <stop stop-color="#9BC0FB" offset="100%"></stop>
        </linearGradient>
        <linearGradient x1="31.6908892%" y1="397.491035%" x2="55.5177225%" y2="-90.6156431%" id="linearGradient-5">
            <stop stop-color="#75E2FF" offset="0%"></stop>
            <stop stop-color="#9BC0FB" offset="100%"></stop>
        </linearGradient>
        <linearGradient x1="81.6012415%" y1="-72.1160891%" x2="27.9006889%" y2="129.623863%" id="linearGradient-6">
            <stop stop-color="#B3DFFF" offset="0.0105574324%"></stop>
            <stop stop-color="#E3FEFF" offset="100%"></stop>
        </linearGradient>
        <linearGradient x1="-49.1393604%" y1="397.491035%" x2="79.8771188%" y2="-90.6156431%" id="linearGradient-7">
            <stop stop-color="#75E2FF" offset="0%"></stop>
            <stop stop-color="#9BC0FB" offset="100%"></stop>
        </linearGradient>
        <linearGradient x1="31.1282499%" y1="397.491035%" x2="55.6872822%" y2="-90.6156431%" id="linearGradient-8">
            <stop stop-color="#75E2FF" offset="0%"></stop>
            <stop stop-color="#9BC0FB" offset="100%"></stop>
        </linearGradient>
        <linearGradient x1="31.6897659%" y1="397.491035%" x2="55.518061%" y2="-90.6156431%" id="linearGradient-9">
            <stop stop-color="#75E2FF" offset="0%"></stop>
            <stop stop-color="#9BC0FB" offset="100%"></stop>
        </linearGradient>
        <linearGradient x1="31.6908892%" y1="397.491035%" x2="55.5177225%" y2="-90.6156431%" id="linearGradient-10">
            <stop stop-color="#75E2FF" offset="0%"></stop>
            <stop stop-color="#9BC0FB" offset="100%"></stop>
        </linearGradient>
    </defs>
    <g id="页面-1" stroke="none" stroke-width="1" fill="none" fill-rule="evenodd">
        <g id="东鹏登录页" transform="translate(-1238.000000, -727.000000)">
            <g id="artpic_page2" transform="translate(1239.000000, 727.000000)">
                <g id="编组-3备份">
                    <g id="编组">
                        <path d="M41.8472,308.856 L2.4616,285.9995 C0.9367,285.1121 0,283.4801 0,281.7172 L0,270.5992 C0,268.7955 1.02,267.1482 2.635,266.3441 L6.8612,264.2395" id="Path" stroke="#FBF8FF" stroke-width="1.08698" opacity="0.8"></path>
                        <circle id="XMLID_980_" fill="#C9EDFF" cx="59.2603" cy="182.0037" r="2.5891"></circle>
                        <circle id="XMLID_979_" fill="#C9EDFF" cx="212.7822" cy="239.9754" r="2.5891"></circle>
                        <circle id="XMLID_978_" fill="#C9EDFF" cx="149.158" cy="188.2223" r="2.5891"></circle>
                        <circle id="XMLID_977_" fill="#C9EDFF" cx="113.6382" cy="264.4486" r="2.5891"></circle>
                        <circle id="XMLID_976_" fill="#C9EDFF" cx="207.0056" cy="168.7352" r="2.5891"></circle>
                        <circle id="XMLID_975_" fill="#C9EDFF" cx="66.0909" cy="125.3971" r="2.5891"></circle>
                        <circle id="XMLID_974_" fill="#C9EDFF" cx="108.2305" cy="220.9405" r="2.5891"></circle>
                        <circle id="XMLID_972_" fill="#C9EDFF" cx="116.5282" cy="155.7166" r="2.5891"></circle>
                        <circle id="XMLID_971_" fill="#C9EDFF" cx="215.6722" cy="131.2417" r="2.5891"></circle>
                        <circle id="XMLID_970_" fill="#C9EDFF" cx="111.1222" cy="112.2068" r="2.5891"></circle>
                        <circle id="XMLID_969_" fill="#C9EDFF" cx="152.048" cy="79.4903" r="2.5891"></circle>
                        <circle id="XMLID_968_" fill="#C9EDFF" cx="62.152" cy="73.27" r="2.5891"></circle>
                        <circle id="XMLID_967_" fill="#C9EDFF" cx="80.0241" cy="2.5891" r="2.5891"></circle>
                        <circle id="XMLID_966_" fill="#C9EDFF" cx="209.5947" cy="34.9605" r="2.5891"></circle>
                        <g id="编组-2" transform="translate(132.248100, 57.679300)">
                            <polygon id="Path" fill="url(#linearGradient-1)" points="22.8718 130.2064 1.10134124e-13 65.5503 56.0235 -1.70530257e-13 69.8139 6.0843 87.1267 55.0256"></polygon>
                            <polygon id="Path" fill="url(#linearGradient-2)" points="69.8139 6.0843 61.5825 15.7165 56.0235 -5.68434189e-14"></polygon>
                            <polygon id="Path" fill="url(#linearGradient-3)" points="66.113 63.8469 51.289 21.9402 53.4973 19.3562 68.3213 61.2629"></polygon>
                            <polygon id="Path" fill="url(#linearGradient-4)" points="61.8171 76.2807 43.1273 23.4481 45.3356 20.8658 64.0237 73.6984"></polygon>
                            <polygon id="Path" fill="url(#linearGradient-4)" points="55.6665 83.4768 36.9784 30.6442 39.185 28.0619 57.8748 80.8928"></polygon>
                            <polygon id="Path" fill="url(#linearGradient-5)" points="49.5159 90.6729 30.8278 37.8403 33.0361 35.2563 51.7242 88.0889"></polygon>
                            <polygon id="Path" fill="url(#linearGradient-4)" points="43.367 97.8673 24.6772 45.0347 26.8855 42.4524 45.5736 95.285"></polygon>
                            <polygon id="Path" fill="url(#linearGradient-4)" points="37.2164 105.0634 18.5283 52.2308 20.7349 49.6485 39.4247 102.4811"></polygon>
                            <polygon id="Path" fill="url(#linearGradient-4)" points="31.0658 112.2595 12.3777 59.4269 14.586 56.8446 33.2741 109.6772"></polygon>
                        </g>
                    </g>
                    <g id="编组-2备份" transform="translate(86.959678, 193.479739) scale(1, -1) rotate(-205.000000) translate(-86.959678, -193.479739) translate(56.459678, 147.979739)">
                        <polygon id="Path" fill="url(#linearGradient-6)" points="15.8343231 90.1428923 1.10134124e-13 45.3809769 38.7855 -1.70530257e-13 48.3327 4.21220769 60.3184846 38.0946462"></polygon>
                        <polygon id="Path" fill="url(#linearGradient-7)" points="48.3327 4.21220769 42.6340385 10.8806538 38.7855 -5.68434189e-14"></polygon>
                        <polygon id="Path" fill="url(#linearGradient-8)" points="45.7705385 44.2017 35.5077692 15.1893692 37.0365923 13.4004462 47.2993615 42.4127769"></polygon>
                        <polygon id="Path" fill="url(#linearGradient-9)" points="42.7964538 52.8097154 29.8573615 16.2333 31.3861846 14.4455538 44.3241 51.0219692"></polygon>
                        <polygon id="Path" fill="url(#linearGradient-9)" points="38.5383462 57.7916308 25.6004308 21.2152154 27.1280769 19.4274692 40.0671692 56.0027077"></polygon>
                        <polygon id="Path" fill="url(#linearGradient-10)" points="34.2802385 62.7735462 21.3423231 26.1971308 22.8711462 24.4082077 35.8090615 60.9846231"></polygon>
                        <polygon id="Path" fill="url(#linearGradient-9)" points="30.0233077 67.7542846 17.0842154 31.1778692 18.6130385 29.3901231 31.5509538 65.9665385"></polygon>
                        <polygon id="Path" fill="url(#linearGradient-9)" points="25.7652 72.7362 12.8272846 36.1597846 14.3549308 34.3720385 27.2940231 70.9484538"></polygon>
                        <polygon id="Path" fill="url(#linearGradient-9)" points="21.5070923 77.7181154 8.56917692 41.1417 10.098 39.3539538 23.0359154 75.9303692"></polygon>
                    </g>
                </g>
            </g>
        </g>
    </g>
</svg>