<?xml version="1.0" encoding="UTF-8"?>
<svg width="18px" height="18px" viewBox="0 0 18 18" version="1.1" xmlns="http://www.w3.org/2000/svg" xmlns:xlink="http://www.w3.org/1999/xlink">
    <!-- Generator: Sketch 52.6 (67491) - http://www.bohemiancoding.com/sketch -->
    <title>icon-delete-mid</title>
    <desc>Created with Sketch.</desc>
    <g id="icon-delete-mid" stroke="none" stroke-width="1" fill="none" fill-rule="evenodd">
        <path d="M12.3603796,5 L15,5 C15.2761424,5 15.5,5.22385763 15.5,5.5 C15.5,5.77614237 15.2761424,6 15,6 L13.7106703,6 L13.7106703,15.8814378 L4.5,15.8814378 L4.5,6 L3,6 C2.72385763,6 2.5,5.77614237 2.5,5.5 C2.5,5.22385763 2.72385763,5 3,5 L5.63962039,5 L6.52565835,2.34188612 C6.59371537,2.13771505 6.7847848,2 7,2 L11,2 C11.2152152,2 11.4062846,2.13771505 11.4743416,2.34188612 L12.3603796,5 Z M11.3062871,5 L10.6396204,3 L7.36037961,3 L6.69371294,5 L11.3062871,5 Z M12.0115297,6 C12.0037775,6.00018133 11.9960421,6.0001804 11.9883288,6 L6.01167411,6 C6.00395794,6.0001804 5.99622246,6.00018133 5.98847034,6 L5.5,6 L5.5,14.8814378 L12.7106703,14.8814378 L12.7106703,6 L12.0115321,6 Z M6.5,7.5 L7.5,7.5 L7.5,13.5 L6.5,13.5 L6.5,7.5 Z M8.5,7.5 L9.5,7.5 L9.5,13.5 L8.5,13.5 L8.5,7.5 Z M10.5,7.5 L11.5,7.5 L11.5,13.5 L10.5,13.5 L10.5,7.5 Z" id="合并形状-copy" fill="#C0C4CC" fill-rule="nonzero"></path>
    </g>
</svg>