<?xml version="1.0" encoding="UTF-8"?>
<svg width="54px" height="54px" viewBox="0 0 54 54" version="1.1" xmlns="http://www.w3.org/2000/svg" xmlns:xlink="http://www.w3.org/1999/xlink">
    <!-- Generator: Sketch 56.3 (81716) - https://sketch.com -->
    <title>icon_invoice_1</title>
    <desc>Created with Sketch.</desc>
    <g id="页面-1" stroke="none" stroke-width="1" fill="none" fill-rule="evenodd">
        <g id="首页" transform="translate(-672.000000, -115.000000)">
            <g id="&lt;h24&gt;" transform="translate(116.000000, 88.000000)">
                <g id="编组-4" transform="translate(331.000000, 0.000000)">
                    <g id="icon_invoice_1" transform="translate(225.000000, 27.000000)">
                        <circle id="椭圆形" fill="#A1DBB0" cx="27" cy="27" r="27"></circle>
                        <g id="icon_invoice" transform="translate(7.000000, 7.000000)">
                            <g>
                                <rect id="矩形" x="7.10542736e-15" y="7.10542736e-15" width="40" height="40"></rect>
                                <path d="M14.5454545,22.8181818 C13.9931698,22.8181818 13.5454545,22.3704666 13.5454545,21.8181818 C13.5454545,21.2658971 13.9931698,20.8181818 14.5454545,20.8181818 L20,20.8181818 C20.5522847,20.8181818 21,21.2658971 21,21.8181818 C21,22.3704666 20.5522847,22.8181818 20,22.8181818 L14.5454545,22.8181818 Z M14.5454545,17.3636364 C13.9931698,17.3636364 13.5454545,16.9159211 13.5454545,16.3636364 C13.5454545,15.8113516 13.9931698,15.3636364 14.5454545,15.3636364 L25.4545455,15.3636364 C26.0068302,15.3636364 26.4545455,15.8113516 26.4545455,16.3636364 C26.4545455,16.9159211 26.0068302,17.3636364 25.4545455,17.3636364 L14.5454545,17.3636364 Z M11.8181818,6.27272727 L29.1258741,6.27272727 C30.682313,6.27272727 31.9440559,7.53447025 31.9440559,9.09090909 L31.9440559,33.2584723 C31.9440559,34.1506365 30.8643116,34.5962308 30.2351054,33.9637305 L28.5264157,32.2460951 C27.8536372,31.5697944 26.7599923,31.566939 26.0836915,32.2397175 L24.3686242,33.9637305 C23.9776819,34.3567196 23.3416654,34.3567196 22.9507231,33.9637305 L21.2420334,32.2460951 C20.5692549,31.5697944 19.47561,31.566939 18.7993092,32.2397175 L18.7929316,32.2460951 L17.0842419,33.9637305 C16.6932996,34.3567196 16.0572832,34.3567196 15.6663409,33.9637305 L13.9576511,32.2460951 C13.2848726,31.5697944 12.1912277,31.566939 11.5149269,32.2397175 L9.79985961,33.9637305 C9.17065345,34.5962308 8.09090909,34.1506365 8.09090909,33.2584723 L8.09090909,10 C8.09090909,7.94148411 9.75966593,6.27272727 11.8181818,6.27272727 Z M29.9440559,9.09090909 C29.9440559,8.63903975 29.5777435,8.27272727 29.1258741,8.27272727 L11.8181818,8.27272727 C10.8642354,8.27272727 10.0909091,9.04605361 10.0909091,10 L10.0909091,30.8353179 L10.1044105,30.8218165 C11.5637964,29.3700312 13.9237669,29.3761928 15.3755522,30.8355787 L16.3752914,31.8405519 L17.3750306,30.8355787 L17.3887928,30.8218165 C18.8481787,29.3700312 21.2081492,29.3761928 22.6599345,30.8355787 L23.6596737,31.8405519 L24.6594129,30.8355787 L24.6731751,30.8218165 C26.1324736,29.3701182 28.4922489,29.3761921 29.9440559,30.8353166 L29.9440559,9.09090909 Z" id="形状结合" fill="#FFFFFF" fill-rule="nonzero"></path>
                            </g>
                        </g>
                    </g>
                </g>
            </g>
        </g>
    </g>
</svg>