<?xml version="1.0" encoding="UTF-8"?>
<svg width="54px" height="54px" viewBox="0 0 54 54" version="1.1" xmlns="http://www.w3.org/2000/svg" xmlns:xlink="http://www.w3.org/1999/xlink">
    <!-- Generator: Sketch 56.3 (81716) - https://sketch.com -->
    <title>LOGO-dongpeng-blue</title>
    <desc>Created with Sketch.</desc>
    <g id="页面-1" stroke="none" stroke-width="1" fill="none" fill-rule="evenodd">
        <g id="东鹏登录页" transform="translate(-923.000000, -368.000000)" fill="#334B72">
            <g id="编组" transform="translate(790.000000, 362.000000)">
                <g id="LOGO-dongpeng" transform="translate(127.000000, 0.000000)">
                    <path d="M24.9759086,43.8009943 C24.250178,43.878578 23.4711086,43.9259902 22.6785698,43.9475412 C23.5524637,48.9937127 27.2619331,55.4600963 31.60608,59.3452065 C32.064578,59.3689127 32.5263086,59.3813045 32.9907331,59.3813045 C34.3699984,59.3813045 35.7234024,59.2746269 37.0455576,59.0709698 C31.1163331,56.0575984 26.7026841,50.4710351 24.9759086,43.8009943 M26.716369,43.5121567 C26.5401894,43.5557976 26.3613159,43.5983608 26.1662792,43.6344588 C28.8100506,50.5404833 34.60512,55.8705894 41.795618,57.8705241 C42.8128261,57.510622 43.7998629,57.0898384 44.7545731,56.613022 C36.6804833,55.7709159 29.8978384,50.6293812 26.716369,43.5121567 M21.2897143,43.9641355 C18.6685714,43.9598253 16.3313633,43.7701763 16.3313633,43.7701763 L16.8981551,42.7718253 L12.7969959,42.4523314 C12.4780408,42.427009 12.3309551,42.0450171 12.5529306,41.8138824 C15.3276245,38.9255069 19.4891265,34.2122988 24.984098,31.4957927 C27.7932735,30.1079069 31.9892571,28.790062 32.8685388,27.7496865 C33.1217633,27.4506661 33.0490286,27.1090824 32.8674612,26.8154498 L32.2554122,26.1414416 L30.244702,23.6943233 C30.1013878,23.5202988 30.1240163,23.2643804 30.2953469,23.1178335 L30.7861714,22.6970498 C31.1261388,22.4055722 31.6212735,22.3840212 31.9849469,22.6458661 C32.6298612,23.1102906 35.5344,24.2616539 36.9820898,24.1361192 C37.3317551,24.1059478 37.6507102,24.0709273 37.9378776,24.0353682 C38.9426939,23.910911 39.8963265,23.5553192 40.7098776,22.9535069 C43.7534204,20.7030416 46.9957714,15.8044947 49.3076571,12.5680702 C49.3550694,12.5018008 49.4191837,12.4479233 49.4692898,12.383809 C44.9527347,8.76754776 39.2266286,6.60005388 32.9908408,6.60005388 C18.4153469,6.60005388 6.6,18.4154008 6.6,32.9903559 C6.6,46.0513518 16.0905306,56.88936 28.5502531,59.0018988 C24.957698,54.7951396 22.0483102,48.5297192 21.2897143,43.9641355 M28.1543608,42.9454727 C32.001218,49.1300767 38.8318139,53.2565584 46.6569894,53.2565584 C47.8880914,53.2565584 49.0874057,53.1299461 50.2630139,52.9343706 C52.2758792,51.1898155 54.0231282,49.1483951 55.4331037,46.8736849 C52.5716669,48.1904522 49.3961241,48.9425829 46.0368588,48.9425829 C39.6071118,48.9425829 33.8136588,46.2449339 29.704418,41.9282645 C29.1435527,42.3377339 28.6214792,42.6841665 28.1543608,42.9454727 M53.8934988,35.2166302 C52.5557192,35.8389159 52.397858,37.0479282 49.7293029,38.7795527 C46.8527804,40.6469486 44.4988702,40.6528751 43.7451233,40.5946873 C43.5861845,40.5822955 43.46496,40.470769 43.4229355,40.3166792 C43.1298416,39.2256588 43.3674416,36.0819037 40.8179559,33.5836016 C40.7274416,33.4947037 40.5927478,33.4472914 40.4709845,33.4844669 C38.7102661,34.02432 34.1516865,38.4735282 30.6038498,41.2476833 C33.7411396,42.9916996 37.3460865,43.993822 41.189711,43.993822 C48.7584294,43.993822 55.4257763,40.144271 59.348062,34.2990955 C59.3690743,33.8653812 59.3814661,33.4295118 59.3814661,32.9904098 C59.3814661,30.0373812 58.8884865,27.2007282 57.9935804,24.5488751 C55.6062661,26.161969 52.409711,27.8219363 48.1760131,29.4959118 C47.895311,29.6068996 47.8462824,29.9878139 48.0989682,30.1526792 C49.1447314,30.834769 51.1974661,32.1870955 52.5918171,33.196222 C53.1101192,33.5717486 53.6095641,33.9731363 53.9953273,34.2958629 C54.3013518,34.5507037 54.4365845,34.9644833 53.8934988,35.2166302" id="形状结合"></path>
                </g>
            </g>
        </g>
    </g>
</svg>