<?xml version="1.0" standalone="no"?><!DOCTYPE svg PUBLIC "-//W3C//DTD SVG 1.1//EN" "http://www.w3.org/Graphics/SVG/1.1/DTD/svg11.dtd"><svg class="icon" width="200px" height="200.00px" viewBox="0 0 1024 1024" version="1.1" xmlns="http://www.w3.org/2000/svg"><path fill="#333333" d="M971.434667 887.239111l-16.327111 19.456c-8.419556 9.728-16.611556 18.204444-29.866667 30.72l-24.405333 22.414222c-53.76 48.810667-124.700444 45.909333-230.968889 15.132445l-29.923556-9.102222c-69.12-21.959111-223.914667-128.910222-348.444444-247.239112-118.784-112.867556-200.817778-257.706667-245.873778-395.036444C24.007111 257.536 23.722667 217.884444 38.115556 174.876444l3.299555-9.272888 7.850667-20.366223c15.473778-36.465778 43.804444-64.227556 99.157333-95.914666C195.470222 22.186667 229.831111 22.869333 261.290667 42.382222l6.599111 4.209778 9.728 5.916444c33.223111 21.333333 90.794667 83.285333 110.705778 130.958223 22.755556 54.670222 19.057778 102.4-6.940445 132.152889l-5.461333 5.688888-32.426667 32.142223-7.68 6.656-8.931555 6.940444c-2.048 2.048-3.015111 5.632-2.730667 15.132445l0.568889 11.605333c0.853333 11.491556 74.126222 98.645333 116.736 141.596444l23.324444 23.779556c14.279111 14.392889 26.396444 26.396444 39.594667 39.025778l21.048889 19.797333 21.105778 19.228444 17.237333 15.018667c30.378667 25.827556 53.76 42.097778 63.317333 44.316445 19.000889 4.266667 29.696 2.389333 36.295111-2.275556l1.308445-1.024 3.299555-3.299556c-2.104889 2.275556 11.093333-13.710222 21.617778-25.486222l6.314667-6.997333c6.257778-6.542222 12.401778-12.458667 18.830222-17.806222 26.737778-22.016 88.064-22.755556 118.101333-7.793778l43.235556 24.860444c5.688889 3.413333 11.605333 6.826667 17.066667 10.24l15.644444 9.898667c24.234667 16.327111 43.918222 32.768 58.481778 50.289778 36.750222 44.259556 35.157333 119.580444 10.24 153.144889l-6.087111 6.940444z m-39.310223-41.187555c9.102222-9.329778 11.548444-58.254222-8.590222-82.545778-10.524444-12.686222-26.282667-25.884444-46.421333-39.367111l-9.784889-6.257778-12.174222-7.395556-48.64-28.330666c-6.656-4.664889-47.559111-5.233778-55.352889 1.194666a158.833778 158.833778 0 0 0-9.216 8.476445l-7.68 7.964444-17.692445 20.536889a322.56 322.56 0 0 0-6.656 8.078222l-3.470222 3.697778a65.080889 65.080889 0 0 1-10.410666 8.760889c-20.081778 14.051556-47.217778 18.887111-81.464889 11.150222-22.926222-5.176889-53.816889-26.794667-95.288889-62.976l-10.638222-9.329778-21.959112-20.081777c-19.399111-18.033778-34.417778-32.540444-51.484444-49.607111l-40.049778-40.618667-14.165333-15.075556c-7.793778-8.419556-16.497778-17.976889-25.201778-27.875555l-25.6-29.582222-17.066667-20.650667c-28.672-35.669333-43.804444-60.017778-45.112888-78.336-2.616889-35.555556 2.446222-57.856 21.731555-74.069333l8.590222-6.542223 6.599111-5.688889 31.971556-31.687111c11.832889-11.150222 14.791111-36.408889-1.024-74.524444-14.961778-35.669333-63.601778-87.950222-86.698667-103.537778l-6.826666-4.096a333.027556 333.027556 0 0 1-8.533334-5.404444L227.555556 88.632889c-12.344889-6.314667-24.576-5.12-50.858667 10.012444-45.112889 25.827556-64.682667 44.657778-74.979556 68.494223l-2.389333 6.030222-4.721778 12.515555c-13.141333 34.816-14.051556 61.952 5.006222 120.149334 42.325333 129.137778 119.864889 265.898667 231.025778 371.541333 118.784 112.924444 267.150222 215.438222 326.428445 234.268444 101.603556 32.085333 169.016889 39.196444 205.482666 6.030223l20.935111-19.171556c13.368889-12.515556 20.935111-20.195556 28.842667-29.297778l12.231111-14.677333 7.509334-8.533333z" /></svg>