<?xml version="1.0" encoding="UTF-8"?>
<svg width="54px" height="54px" viewBox="0 0 54 54" version="1.1" xmlns="http://www.w3.org/2000/svg" xmlns:xlink="http://www.w3.org/1999/xlink">
    <!-- Generator: Sketch 56.3 (81716) - https://sketch.com -->
    <title>icon_undo_1</title>
    <desc>Created with Sketch.</desc>
    <g id="页面-1" stroke="none" stroke-width="1" fill="none" fill-rule="evenodd">
        <g id="首页" transform="translate(-1003.000000, -115.000000)">
            <g id="&lt;h24&gt;" transform="translate(116.000000, 88.000000)">
                <g id="编组-3" transform="translate(662.000000, 0.000000)">
                    <g id="icon_undo_1" transform="translate(225.000000, 27.000000)">
                        <circle id="椭圆形" fill="#B0AFE7" cx="27" cy="27" r="27"></circle>
                        <g id="icon_undo" transform="translate(7.000000, 7.000000)">
                            <g id="编组-14">
                                <rect id="矩形" x="0" y="0" width="40" height="40"></rect>
                                <g id="icon_invoice" transform="translate(9.000000, 7.000000)" fill="#FFFFFF" fill-rule="nonzero">
                                    <path d="M18.6325178,22.6731677 C19.0146723,23.0718861 19.0012447,23.7049087 18.6025263,24.0870632 C18.2038079,24.4692178 17.5707853,24.4557901 17.1886308,24.0570717 L14.2244757,20.9644405 C14.0013728,20.7810379 13.8590658,20.5029191 13.8590658,20.191566 C13.8590658,20.1899307 13.8590658,20.1882963 13.8590658,20.1866628 C13.857732,19.921587 13.9611239,19.6564954 14.1678067,19.4587708 L17.2193007,16.5395387 C17.6183779,16.1577588 18.2513876,16.1717811 18.6331674,16.5708582 C19.0149473,16.9699354 19.000925,17.6029451 18.6018478,17.9847249 L17.3403284,19.191566 L21.7249417,19.191566 C23.7518584,19.191566 25.3949989,20.8347066 25.3949989,22.8616232 C25.3949989,24.8885399 23.7518584,26.5316804 21.7249417,26.5316804 C21.172657,26.5316804 20.7249417,26.0839652 20.7249417,25.5316804 C20.7249417,24.9793957 21.172657,24.5316804 21.7249417,24.5316804 C22.6472889,24.5316804 23.3949989,23.7839704 23.3949989,22.8616232 C23.3949989,21.9392761 22.6472889,21.191566 21.7249417,21.191566 L17.2124658,21.191566 L18.6325178,22.6731677 Z M14.5454545,24.4545455 C15.0977393,24.4545455 15.5454545,24.9022607 15.5454545,25.4545455 C15.5454545,26.0068302 15.0977393,26.4545455 14.5454545,26.4545455 L1.81818182,26.4545455 C0.261742978,26.4545455 -1,25.1928025 -1,23.6363636 L-1,1.81818182 C-1,0.261742978 0.261742978,-1 1.81818182,-1 L20,-1 C21.5564388,-1 22.8181818,0.261742978 22.8181818,1.81818182 L22.8181818,14.5454545 C22.8181818,15.0977393 22.3704666,15.5454545 21.8181818,15.5454545 C21.2658971,15.5454545 20.8181818,15.0977393 20.8181818,14.5454545 L20.8181818,1.81818182 C20.8181818,1.36631248 20.4518693,1 20,1 L1.81818182,1 C1.36631248,1 1,1.36631248 1,1.81818182 L1,23.6363636 C1,24.088233 1.36631248,24.4545455 1.81818182,24.4545455 L14.5454545,24.4545455 Z M5.45454545,15.5454545 C4.9022607,15.5454545 4.45454545,15.0977393 4.45454545,14.5454545 C4.45454545,13.9931698 4.9022607,13.5454545 5.45454545,13.5454545 L10.9090909,13.5454545 C11.4613757,13.5454545 11.9090909,13.9931698 11.9090909,14.5454545 C11.9090909,15.0977393 11.4613757,15.5454545 10.9090909,15.5454545 L5.45454545,15.5454545 Z M5.45454545,10.0909091 C4.9022607,10.0909091 4.45454545,9.64319384 4.45454545,9.09090909 C4.45454545,8.53862434 4.9022607,8.09090909 5.45454545,8.09090909 L16.3636364,8.09090909 C16.9159211,8.09090909 17.3636364,8.53862434 17.3636364,9.09090909 C17.3636364,9.64319384 16.9159211,10.0909091 16.3636364,10.0909091 L5.45454545,10.0909091 Z" id="形状结合"></path>
                                </g>
                            </g>
                        </g>
                    </g>
                </g>
            </g>
        </g>
    </g>
</svg>