<?xml version="1.0" encoding="UTF-8"?>
<svg width="18px" height="18px" viewBox="0 0 18 18" version="1.1" xmlns="http://www.w3.org/2000/svg" xmlns:xlink="http://www.w3.org/1999/xlink">
    <!-- Generator: Sketch 52.6 (67491) - http://www.bohemiancoding.com/sketch -->
    <title>icon-upload</title>
    <desc>Created with Sketch.</desc>
    <g id="icon-upload" stroke="none" stroke-width="1" fill="none" fill-rule="evenodd">
        <path d="M13.7082874,11.2444444 C13.432145,11.2444444 13.2082874,11.0205868 13.2082874,10.7444444 C13.2082874,10.4683021 13.432145,10.2444444 13.7082874,10.2444444 L15.4999402,10.2444444 C15.7760826,10.2444444 15.9999402,10.4683021 15.9999402,10.7444444 L15.9999402,15.3440261 C15.9999402,15.6201685 15.7760826,15.8440261 15.4999402,15.8440261 L2.5,15.8440261 C2.22385763,15.8440261 2,15.6201685 2,15.3440261 L2,10.7444444 C2,10.4683021 2.22385763,10.2444444 2.5,10.2444444 L4.36215839,10.2444444 C4.63830077,10.2444444 4.86215839,10.4683021 4.86215839,10.7444444 C4.86215839,11.0205868 4.63830077,11.2444444 4.36215839,11.2444444 L3,11.2444444 L3,14.8440261 L14.9999402,14.8440261 L14.9999402,11.2444444 L13.7082874,11.2444444 Z M6.36142152,6.85361072 C6.16612771,7.0488412 5.84954523,7.04878986 5.65431475,6.85349605 C5.45908427,6.65820224 5.45913561,6.34161976 5.65442942,6.14638928 L8.6554026,3.14638928 C8.85090376,2.95095151 9.16789565,2.95124087 9.36303969,3.14703524 L12.3530752,6.14703524 C12.5480123,6.34262193 12.5474856,6.65920398 12.351899,6.85414104 C12.1563123,7.0490781 11.8397302,7.04855146 11.6447931,6.85296477 L9.00825269,4.20763789 L6.36142152,6.85361072 Z M8.99999044,3 C9.27613282,3.0000007 9.49998988,3.2238589 9.49998917,3.50000127 L9.49997011,11.0000013 C9.49996841,11.6666679 8.49996841,11.6666654 8.49997011,10.9999987 L8.49998917,3.49999873 C8.49998952,3.36192754 8.55595425,3.23692769 8.64643668,3.14644571 C8.73691911,3.05596374 8.86191926,2.99999965 8.99999044,3 Z" id="路径-3-copy-2" fill="#559AFF" fill-rule="nonzero"></path>
    </g>
</svg>