<?xml version="1.0" encoding="UTF-8"?>
<svg width="18px" height="18px" viewBox="0 0 18 18" version="1.1" xmlns="http://www.w3.org/2000/svg" xmlns:xlink="http://www.w3.org/1999/xlink">
    <!-- Generator: Sketch 56.3 (81716) - https://sketch.com -->
    <title>icon-upload-nor</title>
    <desc>Created with Sketch.</desc>
    <g id="icon-upload-nor" stroke="none" stroke-width="1" fill="none" fill-rule="evenodd">
        <path d="M13.7082874,11.7444444 C13.432145,11.7444444 13.2082874,11.5205868 13.2082874,11.2444444 C13.2082874,10.9683021 13.432145,10.7444444 13.7082874,10.7444444 L15.4999402,10.7444444 C15.7760826,10.7444444 15.9999402,10.9683021 15.9999402,11.2444444 L15.9999402,15.8440261 C15.9999402,16.1201685 15.7760826,16.3440261 15.4999402,16.3440261 L2.5,16.3440261 C2.22385763,16.3440261 2,16.1201685 2,15.8440261 L2,11.2444444 C2,10.9683021 2.22385763,10.7444444 2.5,10.7444444 L4.36215839,10.7444444 C4.63830077,10.7444444 4.86215839,10.9683021 4.86215839,11.2444444 C4.86215839,11.5205868 4.63830077,11.7444444 4.36215839,11.7444444 L3,11.7444444 L3,15.3440261 L14.9999402,15.3440261 L14.9999402,11.7444444 L13.7082874,11.7444444 Z M6.36142152,7.35361072 C6.16612771,7.5488412 5.84954523,7.54878986 5.65431475,7.35349605 C5.45908427,7.15820224 5.45913561,6.84161976 5.65442942,6.64638928 L8.6554026,3.64638928 C8.85090376,3.45095151 9.16789565,3.45124087 9.36303969,3.64703524 L12.3530752,6.64703524 C12.5480123,6.84262193 12.5474856,7.15920398 12.351899,7.35414104 C12.1563123,7.5490781 11.8397302,7.54855146 11.6447931,7.35296476 L9.00825269,4.70763789 L6.36142152,7.35361072 Z M8.99999044,3.5 C9.27613282,3.5 9.49998917,3.7238589 9.49998917,4 L9.49997011,11.5 C9.49997011,12.1666679 8.49997011,12.1666654 8.49997011,11.5 L8.49998917,4 C8.49998952,3.86192754 8.55595425,3.73692768 8.64643668,3.64644571 C8.73691911,3.55596374 8.86191926,3.5 8.99999044,3.5 Z" id="路径-3-copy-2" fill="#53555A" fill-rule="nonzero"></path>
    </g>
</svg>