<?xml version="1.0" encoding="UTF-8"?>
<svg width="18px" height="18px" viewBox="0 0 18 18" version="1.1" xmlns="http://www.w3.org/2000/svg" xmlns:xlink="http://www.w3.org/1999/xlink">
    <!-- Generator: Sketch 56.3 (81716) - https://sketch.com -->
    <title>file_hover</title>
    <desc>Created with Sketch.</desc>
    <g id="file_hover" stroke="none" stroke-width="1" fill="none" fill-rule="evenodd">
        <path d="M11.5073671,5.48471053 L14.7748821,5.48471053 L11.5553381,2.20514719 L11.5073671,5.48471053 Z M11.4297158,0.649726614 L16.3232011,5.63443714 C16.6337042,5.95072864 16.4096274,6.48471053 15.9663979,6.48471053 L10.9999988,6.48471053 C10.7209973,6.48471053 10.4959729,6.25637051 10.4999457,5.97739769 L10.572966,0.992687163 C10.5794621,0.548580832 11.1185653,0.332775553 11.4297158,0.649726614 Z M3.5,1.5 L3.5,16.5 L15.5,16.5 L15.5,6.18911766 L10.8966979,1.5 L3.5,1.5 Z M3,0.5 L11.1065147,0.5 C11.2407237,0.5 11.3692982,0.553954198 11.4633179,0.649726614 L16.3568032,5.63443714 C16.4485811,5.72792598 16.5,5.85370158 16.5,5.98471053 L16.5,17 C16.5,17.2761424 16.2761424,17.5 16,17.5 L3,17.5 C2.72385763,17.5 2.5,17.2761424 2.5,17 L2.5,1 C2.5,0.723857625 2.72385763,0.5 3,0.5 Z M5.5,7 L5.5,6 L8.87657478,6 L8.87657478,7 L5.5,7 Z M5.5,10 L5.5,9 L13.5,9 L13.5,10 L5.5,10 Z M5.5,13 L5.5,12 L13.5,12 L13.5,13 L5.5,13 Z" id="形状" fill="#6FB5EC" fill-rule="nonzero"></path>
    </g>
</svg>