<?xml version="1.0" encoding="UTF-8"?>
<svg width="16px" height="16px" viewBox="0 0 16 16" version="1.1" xmlns="http://www.w3.org/2000/svg" xmlns:xlink="http://www.w3.org/1999/xlink">
    <!-- Generator: Sketch 52.6 (67491) - http://www.bohemiancoding.com/sketch -->
    <title>dot delet red-dark</title>
    <desc>Created with Sketch.</desc>
    <g id="dot-delet-red-dark" stroke="none" stroke-width="1" fill="none" fill-rule="evenodd">
        <g id="分组" transform="translate(1.500000, 1.500000)">
            <circle id="Oval-2" fill="#E35F5F" cx="6.5" cy="6.5" r="6.5"></circle>
            <path d="M6.58413713,5.87703035 L9.30633004,3.15483744 C9.50159218,2.95957529 9.81817467,2.95957529 10.0134368,3.15483744 C10.208699,3.35009959 10.208699,3.66668208 10.0134368,3.86194422 L7.29124391,6.58413713 L9.72617469,9.01906791 C9.92143684,9.21433005 9.92143684,9.53091254 9.72617469,9.72617469 C9.53091254,9.92143684 9.21433005,9.92143684 9.01906791,9.72617469 L6.58413713,7.29124391 L4.26819422,9.60718682 C4.07293208,9.80244896 3.75634959,9.80244896 3.56108744,9.60718682 C3.36582529,9.41192467 3.36582529,9.09534218 3.56108744,8.90008004 L5.87703035,6.58413713 L3.27382531,3.98093209 C3.07856316,3.78566995 3.07856316,3.46908746 3.27382531,3.27382531 C3.46908746,3.07856316 3.78566995,3.07856316 3.98093209,3.27382531 L6.58413713,5.87703035 Z" id="合并形状" fill="#FFFFFF" fill-rule="nonzero"></path>
        </g>
    </g>
</svg>