<?xml version="1.0" encoding="UTF-8"?>
<svg width="55px" height="20px" viewBox="0 0 55 20" version="1.1" xmlns="http://www.w3.org/2000/svg" xmlns:xlink="http://www.w3.org/1999/xlink">
    <!-- Generator: Sketch 56.3 (81716) - https://sketch.com -->
    <title>编组 19</title>
    <desc>Created with Sketch.</desc>
    <g id="Page-1" stroke="none" stroke-width="1" fill="none" fill-rule="evenodd">
        <g id="编组-19" fill-rule="nonzero">
            <path d="M10,0 L45,0 C50.5228475,0 55,4.4771525 55,10 C55,15.5228475 50.5228475,20 45,20 L10,20 C4.4771525,20 0,15.5228475 0,10 C0,4.4771525 4.4771525,0 10,0 Z M10,1 C5.02943725,1 1,5.02943725 1,10 C1,14.9705627 5.02943725,19 10,19 L45,19 C49.9705627,19 54,14.9705627 54,10 C54,5.02943725 49.9705627,1 45,1 L10,1 Z" id="矩形" fill="#B3D6F3"></path>
            <path d="M10,1 C5.02943725,1 1,5.02943725 1,10 C1,14.9705627 5.02943725,19 10,19 L45,19 C49.9705627,19 54,14.9705627 54,10 C54,5.02943725 49.9705627,1 45,1 L10,1 Z" id="路径" fill="#FFFFFF"></path>
            <path d="M25.922,5.06 L25.922,8.196 L24.9,8.196 L24.9,6.04 L15.072,6.04 L15.072,8.196 L14.05,8.196 L14.05,5.06 L19.426,5.06 C19.258,4.584 19.09,4.15 18.894,3.758 L20.028,3.562 C20.21,4.01 20.392,4.5 20.56,5.06 L25.922,5.06 Z M16.052,7.664 L23.892,7.664 L23.892,8.644 L16.052,8.644 L16.052,7.664 Z M13.91,10.296 L26.104,10.296 L26.104,11.262 L22.142,11.262 L22.142,14.58 C22.142,15 22.338,15.224 22.744,15.224 L24.606,15.224 C24.858,15.224 25.026,15.126 25.124,14.944 C25.236,14.734 25.32,14.104 25.376,13.04 L26.328,13.348 C26.244,14.692 26.076,15.518 25.824,15.798 C25.6,16.05 25.264,16.19 24.788,16.19 L22.422,16.19 C21.554,16.19 21.134,15.714 21.134,14.79 L21.134,11.262 L18.782,11.262 L18.782,11.36 C18.74,12.732 18.362,13.838 17.662,14.678 C16.962,15.434 15.828,16.036 14.26,16.47 L13.686,15.574 C15.212,15.182 16.276,14.664 16.892,14.006 C17.452,13.334 17.746,12.452 17.788,11.36 L17.788,11.262 L13.91,11.262 L13.91,10.296 Z M32.768,13.6 L32.768,14.552 C31.34,15.07 29.73,15.49 27.91,15.826 L27.784,14.846 C29.688,14.538 31.34,14.118 32.768,13.6 Z M30.178,3.52 L31.116,3.884 C30.402,5.704 29.674,7.16 28.946,8.252 C29.604,8.168 30.262,8.07 30.934,7.958 C31.2,7.454 31.48,6.936 31.76,6.404 L32.642,6.726 C31.368,9.092 30.304,10.772 29.45,11.78 C30.514,11.57 31.564,11.29 32.6,10.94 L32.6,11.836 C31.088,12.354 29.632,12.704 28.232,12.886 L27.966,11.976 C28.148,11.892 28.302,11.794 28.428,11.682 C28.96,11.136 29.618,10.212 30.402,8.896 C29.604,9.022 28.806,9.134 27.994,9.246 L27.742,8.322 C27.896,8.252 28.036,8.126 28.162,7.944 C28.946,6.656 29.618,5.186 30.178,3.52 Z M32.6,5.298 L35.946,5.298 L35.946,3.604 L36.968,3.604 L36.968,5.298 L40.3,5.298 L40.3,6.278 L36.968,6.278 L36.968,8.35 L39.894,8.35 L39.894,9.33 L33.062,9.33 L33.062,8.35 L35.946,8.35 L35.946,6.278 L32.6,6.278 L32.6,5.298 Z M39.488,10.73 L39.488,16.358 L38.508,16.358 L38.508,15.686 L34.504,15.686 L34.504,16.358 L33.51,16.358 L33.51,10.73 L39.488,10.73 Z M34.504,14.734 L38.508,14.734 L38.508,11.682 L34.504,11.682 L34.504,14.734 Z" id="完结" fill="#3BA4EC"></path>
        </g>
    </g>
</svg>