<?xml version="1.0" encoding="UTF-8"?>
<svg width="61px" height="21px" viewBox="0 0 61 21" version="1.1" xmlns="http://www.w3.org/2000/svg" xmlns:xlink="http://www.w3.org/1999/xlink">
    <!-- Generator: Sketch 56.3 (81716) - https://sketch.com -->
    <title>编组 18</title>
    <desc>Created with Sketch.</desc>
    <g id="Page-1" stroke="none" stroke-width="1" fill="none" fill-rule="evenodd">
        <g id="编组-18" transform="translate(0.859114, 0.100000)" fill-rule="nonzero">
            <path d="M9.13525645,0.9 C8.52633919,0.9 7.95058892,1.17740223 7.57111715,1.65361794 L1,9.9 L7.57111715,18.1463821 C7.95058892,18.6225978 8.52633919,18.9 9.13525645,18.9 L57.1408862,18.9 C58.2454557,18.9 59.1408862,18.0045695 59.1408862,16.9 L59.1408862,2.9 C59.1408862,1.7954305 58.2454557,0.9 57.1408862,0.9 L9.13525645,0.9 Z" id="路径备份" fill="#FFFFFF" transform="translate(30.070443, 9.900000) scale(-1, -1) translate(-30.070443, -9.900000) "></path>
            <path d="M9.13525645,0 L57.1408862,0 C58.7977405,0 60.1408862,1.34314575 60.1408862,3 L60.1408862,17 C60.1408862,18.6568542 58.7977405,20 57.1408862,20 L9.13525645,20 C8.22188055,20 7.35825516,19.5838967 6.78904749,18.8695731 L0.217930347,10.623191 C-0.0726434488,10.2585373 -0.0726434488,9.74146273 0.217930347,9.37680897 L6.78904749,1.13042692 C7.35825516,0.416103343 8.22188055,0 9.13525645,0 Z M9.13525645,1 C8.52633919,1 7.95058892,1.27740223 7.57111715,1.75361794 L1,10 L7.57111715,18.2463821 C7.95058892,18.7225978 8.52633919,19 9.13525645,19 L57.1408862,19 C58.2454557,19 59.1408862,18.1045695 59.1408862,17 L59.1408862,3 C59.1408862,1.8954305 58.2454557,1 57.1408862,1 L9.13525645,1 Z" id="Rectangle-14-Copy-2" fill="#FAC89B" transform="translate(30.070443, 10.000000) scale(-1, -1) translate(-30.070443, -10.000000) "></path>
            <path d="M17.8308862,9.904 L9.03888622,9.904 L9.03888622,14.034 C9.03888622,14.65 9.36088622,14.972 10.0048862,14.972 L17.0328862,14.972 C17.3688862,14.972 17.6488862,14.888 17.8588862,14.72 C18.1388862,14.468 18.3208862,13.572 18.4048862,12.032 L19.3848862,12.34 C19.2448862,14.076 19.0068862,15.112 18.6708862,15.476 C18.3628862,15.77 17.9008862,15.924 17.3128862,15.952 L9.72488622,15.952 C8.59088622,15.952 8.03088622,15.364 8.03088622,14.216 L8.03088622,6.866 L9.03888622,6.866 L9.03888622,8.938 L16.8088862,8.938 L16.8088862,5.284 L7.47088622,5.284 L7.47088622,4.304 L17.8308862,4.304 L17.8308862,9.904 Z M25.7688862,11.99 L25.7688862,13.11 L27.9528862,13.11 L27.9528862,11.99 L25.7688862,11.99 Z M27.9528862,11.234 L27.9528862,10.114 L25.7688862,10.114 L25.7688862,11.234 L27.9528862,11.234 Z M25.7688862,13.866 L25.7688862,16.288 L24.8728862,16.288 L24.8728862,9.302 L28.8488862,9.302 L28.8488862,15.126 C28.8488862,15.854 28.4708862,16.232 27.7148862,16.232 L26.8608862,16.232 L26.6368862,15.364 L27.4348862,15.406 C27.7708862,15.406 27.9528862,15.252 27.9528862,14.944 L27.9528862,13.866 L25.7688862,13.866 Z M28.2328862,6.18 C28.5968862,6.824 28.9048862,7.51 29.1568862,8.238 L28.4288862,8.56 C28.3728862,8.378 28.3168862,8.21 28.2608862,8.07 C27.4628862,8.266 26.2448862,8.448 24.6208862,8.616 L24.4948862,7.818 C24.7188862,7.762 24.9568862,7.566 25.1948862,7.216 C25.4328862,6.824 25.6848862,6.348 25.9368862,5.788 L24.3828862,5.788 L24.3828862,4.864 L26.5108862,4.864 C26.3568862,4.416 26.1888862,3.996 26.0068862,3.632 L27.0008862,3.464 C27.1408862,3.884 27.2948862,4.346 27.4488862,4.864 L29.4788862,4.864 L29.4788862,5.788 L26.9028862,5.788 C26.5108862,6.6 26.1468862,7.244 25.7968862,7.734 C26.5808862,7.622 27.3088862,7.496 27.9808862,7.384 C27.8268862,7.02 27.6728862,6.698 27.5188862,6.404 L28.2328862,6.18 Z M30.7108862,6.656 C30.6128862,6.992 30.5148862,7.314 30.4028862,7.622 C30.6408862,9.106 30.9488862,10.394 31.3268862,11.514 C31.7188862,10.128 31.9288862,8.504 31.9708862,6.656 L30.7108862,6.656 Z M30.9068862,12.76 C30.4868862,11.668 30.1368862,10.394 29.8568862,8.952 C29.7028862,9.26 29.5488862,9.54 29.3808862,9.806 L28.8068862,9.106 C29.5908862,7.706 30.1368862,5.83 30.4168862,3.45 L31.3268862,3.618 C31.2148862,4.374 31.0888862,5.074 30.9488862,5.718 L33.3988862,5.718 L33.3988862,6.656 L32.8108862,6.656 C32.7688862,9.064 32.4328862,11.094 31.8168862,12.774 C32.3208862,13.922 32.9228862,14.818 33.6228862,15.462 L33.0488862,16.302 C32.4048862,15.672 31.8448862,14.846 31.3688862,13.838 C30.8928862,14.804 30.3048862,15.63 29.6048862,16.302 L29.1008862,15.476 C29.8568862,14.762 30.4588862,13.852 30.9068862,12.76 Z M22.0588862,16.246 L21.0228862,16.246 L20.8268862,15.308 C21.1348862,15.35 21.4288862,15.378 21.7228862,15.378 C22.0588862,15.378 22.2268862,15.168 22.2268862,14.762 L22.2268862,11.36 C21.7788862,11.57 21.3308862,11.752 20.8828862,11.92 L20.6308862,10.912 C21.1768862,10.744 21.7088862,10.562 22.2268862,10.338 L22.2268862,7.104 L20.8828862,7.104 L20.8828862,6.138 L22.2268862,6.138 L22.2268862,3.576 L23.1928862,3.576 L23.1928862,6.138 L24.1728862,6.138 L24.1728862,7.104 L23.1928862,7.104 L23.1928862,9.862 C23.5568862,9.666 23.9068862,9.456 24.2568862,9.232 L24.2568862,10.254 C23.9068862,10.478 23.5568862,10.688 23.1928862,10.884 L23.1928862,15.014 C23.1928862,15.826 22.8148862,16.246 22.0588862,16.246 Z M43.3108862,3.604 L44.3048862,3.604 L44.3048862,7.482 L46.9368862,7.482 L46.9368862,14.958 C46.9368862,15.854 46.5308862,16.316 45.7188862,16.316 L44.3188862,16.316 L44.0528862,15.35 L45.3968862,15.392 C45.7468862,15.392 45.9288862,15.168 45.9288862,14.734 L45.9288862,13.264 L41.6588862,13.264 L41.6588862,16.358 L40.6508862,16.358 L40.6508862,7.482 L43.3108862,7.482 L43.3108862,3.604 Z M41.6588862,10.856 L41.6588862,12.396 L45.9288862,12.396 L45.9288862,10.856 L41.6588862,10.856 Z M45.9288862,9.988 L45.9288862,8.434 L41.6588862,8.434 L41.6588862,9.988 L45.9288862,9.988 Z M41.1408862,4.136 C41.5888862,4.85 42.0088862,5.634 42.4148862,6.488 L41.6028862,6.894 C41.1968862,6.012 40.7628862,5.228 40.2868862,4.542 L41.1408862,4.136 Z M46.4608862,4.01 L47.3008862,4.402 C46.9508862,5.256 46.5028862,6.082 45.9568862,6.894 L45.1308862,6.474 C45.6908862,5.634 46.1248862,4.822 46.4608862,4.01 Z M36.5628862,3.59 L37.5428862,3.786 C37.4168862,4.262 37.2908862,4.71 37.1508862,5.144 L39.7128862,5.144 L39.7128862,6.096 L36.8148862,6.096 C36.4368862,7.062 36.0028862,7.944 35.4988862,8.728 L34.6728862,8.21 C35.5408862,6.81 36.1708862,5.27 36.5628862,3.59 Z M36.1428862,7.972 L39.4748862,7.972 L39.4748862,8.882 L38.0188862,8.882 L38.0188862,10.646 L39.9508862,10.646 L39.9508862,11.584 L38.0188862,11.584 L38.0188862,14.874 C38.6488862,14.65 39.2928862,14.342 39.9368862,13.964 L40.1048862,14.86 C39.2228862,15.35 38.2008862,15.756 37.0388862,16.064 L36.6188862,15.196 C36.8988862,15.098 37.0388862,14.958 37.0388862,14.776 L37.0388862,11.584 L35.1068862,11.584 L35.1068862,10.646 L37.0388862,10.646 L37.0388862,8.882 L36.1428862,8.882 L36.1428862,7.972 Z" id="已撤销" fill="#F5A623"></path>
        </g>
    </g>
</svg>