<?xml version="1.0" encoding="UTF-8"?>
<svg width="61px" height="21px" viewBox="0 0 61 21" version="1.1" xmlns="http://www.w3.org/2000/svg" xmlns:xlink="http://www.w3.org/1999/xlink">
    <!-- Generator: Sketch 56.3 (81716) - https://sketch.com -->
    <title>编组 17</title>
    <desc>Created with Sketch.</desc>
    <g id="Page-1" stroke="none" stroke-width="1" fill="none" fill-rule="evenodd">
        <g id="编组-17" transform="translate(0.859114, 0.100000)" fill-rule="nonzero">
            <path d="M9.13525645,0 L57.1408862,0 C58.7977405,0 60.1408862,1.34314575 60.1408862,3 L60.1408862,17 C60.1408862,18.6568542 58.7977405,20 57.1408862,20 L9.13525645,20 C8.22188055,20 7.35825516,19.5838967 6.78904749,18.8695731 L0.217930347,10.623191 C-0.0726434488,10.2585373 -0.0726434488,9.74146273 0.217930347,9.37680897 L6.78904749,1.13042692 C7.35825516,0.416103343 8.22188055,0 9.13525645,0 Z M9.13525645,1 C8.52633919,1 7.95058892,1.27740223 7.57111715,1.75361794 L1,10 L7.57111715,18.2463821 C7.95058892,18.7225978 8.52633919,19 9.13525645,19 L57.1408862,19 C58.2454557,19 59.1408862,18.1045695 59.1408862,17 L59.1408862,3 C59.1408862,1.8954305 58.2454557,1 57.1408862,1 L9.13525645,1 Z" id="Rectangle-14-Copy-5" fill="#F5BABA" transform="translate(30.070443, 10.000000) scale(-1, -1) translate(-30.070443, -10.000000) "></path>
            <path d="M9.13525645,1 C8.52633919,1 7.95058892,1.27740223 7.57111715,1.75361794 L1,10 L7.57111715,18.2463821 C7.95058892,18.7225978 8.52633919,19 9.13525645,19 L57.1408862,19 C58.2454557,19 59.1408862,18.1045695 59.1408862,17 L59.1408862,3 C59.1408862,1.8954305 58.2454557,1 57.1408862,1 L9.13525645,1 Z" id="路径" fill="#FFFFFF" transform="translate(30.070443, 10.000000) scale(-1, -1) translate(-30.070443, -10.000000) "></path>
            <path d="M24.7608862,3.632 L25.5868862,4.066 C25.1248862,4.892 24.5928862,5.62 24.0048862,6.264 C24.8728862,6.824 25.6848862,7.412 26.4688862,8.042 L25.9228862,8.882 C25.0548862,8.154 24.1728862,7.51 23.3048862,6.95 C22.2408862,7.888 20.9948862,8.602 19.5668862,9.078 L19.0348862,8.238 C20.3508862,7.818 21.4848862,7.216 22.4648862,6.418 C21.4568862,5.802 20.4628862,5.284 19.4548862,4.836 L19.9868862,4.052 C21.1068862,4.57 22.1708862,5.144 23.1788862,5.76 C23.7948862,5.13 24.3128862,4.416 24.7608862,3.632 Z M24.5648862,9.05 L25.4748862,9.428 C24.9988862,11.024 24.3408862,12.382 23.5288862,13.488 C24.4248862,14.356 25.4748862,15.028 26.6928862,15.504 L26.0908862,16.4 C24.8588862,15.868 23.7808862,15.168 22.8848862,14.272 C22.0168862,15.196 21.0088862,15.924 19.8468862,16.428 L19.2028862,15.588 C20.3788862,15.112 21.3728862,14.426 22.2128862,13.544 C21.3448862,12.494 20.6448862,11.262 20.1128862,9.834 L20.9528862,9.358 C21.4148862,10.688 22.0448862,11.822 22.8428862,12.774 C23.5988862,11.738 24.1728862,10.492 24.5648862,9.05 Z M17.6348862,5.144 L13.9388862,5.144 L13.9388862,4.192 L18.6708862,4.192 L17.9848862,9.96 L19.0628862,9.96 C19.0628862,13.152 18.9088862,15 18.6148862,15.49 C18.3208862,15.966 17.6908862,16.218 16.7248862,16.218 C16.3608862,16.218 15.9688862,16.204 15.5768862,16.176 L15.3108862,15.266 C15.8708862,15.322 16.2768862,15.35 16.5008862,15.35 C17.2568862,15.35 17.7048862,15.126 17.8448862,14.706 C17.9988862,14.258 18.0828862,12.984 18.0828862,10.884 L14.2048862,10.884 L14.8768862,5.942 L15.8568862,5.998 L15.2828862,9.96 L17.0188862,9.96 L17.6348862,5.144 Z M17.3128862,12.144 L17.3128862,13.082 C16.2488862,13.39 15.0448862,13.642 13.7008862,13.824 L13.5748862,12.844 C15.0028862,12.676 16.2488862,12.438 17.3128862,12.144 Z M31.4528862,7.468 L36.8568862,7.468 L36.8568862,12.452 L31.4528862,12.452 L31.4528862,7.468 Z M35.9048862,11.598 L35.9048862,8.336 L32.3908862,8.336 L32.3908862,11.598 L35.9048862,11.598 Z M39.7548862,4.402 L39.7548862,16.176 L38.7748862,16.176 L38.7748862,15.574 L29.5068862,15.574 L29.5068862,16.176 L28.5268862,16.176 L28.5268862,4.402 L39.7548862,4.402 Z M29.5068862,14.678 L38.7748862,14.678 L38.7748862,5.298 L29.5068862,5.298 L29.5068862,14.678 Z" id="驳回" fill="#E37070"></path>
        </g>
    </g>
</svg>