<?xml version="1.0" encoding="UTF-8"?>
<svg width="50px" height="50px" viewBox="0 0 50 50" version="1.1" xmlns="http://www.w3.org/2000/svg" xmlns:xlink="http://www.w3.org/1999/xlink">
    <!-- Generator: Sketch 56.3 (81716) - https://sketch.com -->
    <title>LOGO-CEA</title>
    <desc>Created with Sketch.</desc>
    <g id="LOGO-CEA" stroke="none" stroke-width="1" fill="none" fill-rule="evenodd">
        <path d="M19.0566259,21.6416242 L16.4842174,21.6416242 C15.4302471,19.7555085 13.515326,18.4944741 11.3278839,18.4944741 C8.00346886,18.4944741 5.30849796,21.4070973 5.30849796,25 C5.30849796,28.5929027 8.00346886,31.5055259 11.3278839,31.5055259 C13.7003869,31.5055259 15.7523071,30.0220949 16.732877,27.866634 L19.2244201,27.8666336 C18.1167491,31.4317009 14.9998471,34 11.3278839,34 C6.72852064,34 3,29.9705627 3,25 C3,20.0294373 6.72852064,16 11.3278839,16 C14.8287342,16 17.8250494,18.3345115 19.0566259,21.6416241 Z M29.8748387,30.8550851 L39.5941401,17.2518227 L47,33.6378732 L43.8569694,33.6378732 L43.8566631,33.6371694 L43.879059,33.6371694 L38.9032223,22.2540411 L38.8554939,22.3235053 L31.2518542,33.6378732 L20.0173128,33.6371694 L20.0173128,17.6473364 L36.6091116,17.6473364 L34.7961553,20.2088663 L22.572829,20.2088663 L22.572829,24.352912 L31.8631526,24.352912 L30.1941571,26.7110394 L22.572829,26.7110394 L22.572829,30.8550851 L29.8748387,30.8550851 Z M38.641881,26.2857143 L41.72,34 L33.8,34 L38.641881,26.2857143 Z" id="形状结合" fill="#FFFFFF" fill-rule="nonzero"></path>
    </g>
</svg>